<svg xmlns="http://www.w3.org/2000/svg" width="180" height="60" viewBox="0 0 180 60">
  <path fill="#262626" d="M115.13 0l4.84 4.85-19.3 19.3-4.84-4.85L115.13 0zm4.84 55.09l-4.84 4.85-19.3-19.3 4.84-4.85 19.3 19.3z"/>
  <path fill="#B9B9B9" d="M27.3.06l4.85 4.85-19.3 19.3L8 19.36 27.3.06zm4.85 55.09L27.3 60 8 40.7l4.85-4.85 19.3 19.3z"/>
  <path fill="#262626" d="M64.9 0l-4.85 4.85 19.3 19.3 4.87-4.85L64.92 0zm-4.85 55.09l4.86 4.85 19.3-19.3-4.85-4.86-19.3 19.3z"/>
  <path fill="#B9B9B9" d="M152.7.06l-4.84 4.85 19.3 19.3 4.84-4.85L152.7.06zm-4.84 55.09L152.7 60 172 40.7l-4.84-4.86-19.3 19.3z"/>
</svg>
