<svg xmlns="http://www.w3.org/2000/svg" width="180" height="60" viewBox="0 0 180 60">
  <path fill="#B9B9B9" d="M21.3 59.92l-4.86-4.84 19.3-19.3 4.85 4.84-19.3 19.3zM7.95 33.06V26.2h27.3v6.86H7.96zm8.5-28.23L21.3 0l19.3 19.3-4.86 4.85-19.3-19.3z"/>
  <path fill="#262626" d="M75.33 26.93v6.85h27.3v-6.86h-27.3zm-28-7.7l4.84 4.84 19.3-19.3-4.84-4.84-19.3 19.3zm79.7 4.54l4.75-4.95-19.7-18.9-4.75 4.96 19.7 18.9zm4.44 17l-4.84-4.85-19.3 19.3 4.84 4.86 19.3-19.3zm-79.4-4.85l-4.74 4.95 19.7 18.9 4.75-4.96-19.7-18.89z"/>
  <path fill="#B9B9B9" d="M158.7 59.92l4.86-4.84-19.3-19.3-4.86 4.84 19.3 19.3zm13.34-26.84V26.2h-27.3v6.86h27.3zm-8.48-28.24L158.7-.01l-19.3 19.3 4.84 4.85 19.3-19.3z"/>
</svg>
