<svg xmlns="http://www.w3.org/2000/svg" width="162" height="60" fill="none" viewBox="0 0 162 60">
  <defs/>
  <path fill="#B9B9B9" d="M0 0v7.03h27.96V0H0zM36.38 43.4h7.03V15.46h-7.03v27.96z"/>
  <path fill="#262626" d="M53.93 0v7.03h27.96V0H53.93zM90.3 43.4h7.03V15.46h-7.02v27.96z"/>
  <path fill="#B9B9B9" d="M107.86 0v7.03h27.95V0h-27.95zM144.24 43.4h7.02V15.46h-7.02v27.96z"/>
  <path fill="#262626" d="M53.94 60v-7.03H25.98V60h27.96zM17.56 16.6h-7.03v27.95h7.03V16.59z"/>
  <path fill="#B9B9B9" d="M107.86 60v-7.03H79.91V60h27.95zM71.49 16.6h-7.03v27.95h7.03V16.59zM161.8 60v-7.03h-27.97V60h27.96zM125.41 16.6h-7.02v27.95h7.02V16.59z"/>
</svg>
