<svg xmlns="http://www.w3.org/2000/svg" width="180" height="60" viewBox="0 0 180 60">
  <path fill="#262626" d="M112.52 60l-4.86-4.85 19.31-19.31 4.86 4.85L112.52 60zm-4.86-55.1l4.86-4.86 19.3 19.3-4.85 4.86-19.3-19.3zM67.63 60l4.86-4.85-19.31-19.31-4.86 4.85L67.63 60zm4.86-55.1L67.63.03l-19.3 19.3 4.85 4.86 19.3-19.3z"/>
  <path fill="#B9B9B9" d="M78.02 37.23l4.85 4.85 19.31-19.3-4.85-4.86-19.31 19.31zM27.27 0l4.86 4.85-19.31 19.31-4.86-4.85L27.27 0zm4.86 55.1l-4.86 4.86-19.3-19.3 4.85-4.86 19.3 19.3zM152.73 0l-4.86 4.85 19.31 19.32 4.86-4.86L152.73.01zm-4.86 55.1l4.86 4.86 19.3-19.3-4.85-4.86-19.3 19.3z"/>
</svg>
