<svg xmlns="http://www.w3.org/2000/svg" width="186" height="60" fill="none" viewBox="0 0 186 60">
  <defs/>
  <path fill="#262626" d="M115.23 60l-4.86-4.85 19.31-19.31 4.86 4.85L115.23 60zM110.37 4.9l4.86-4.86 19.3 19.3-4.85 4.86-19.3-19.3zM70.34 60l4.86-4.85-19.31-19.31-4.86 4.85L70.34 60zM75.2 4.9L70.34.03l-19.3 19.3 4.85 4.86 19.3-19.3z"/>
  <path fill="#B9B9B9" d="M80.73 37.23l4.85 4.85 19.31-19.3-4.85-4.86-19.31 19.31zM29.98 0l4.86 4.85-19.31 19.31-4.86-4.85L29.98 0zM34.84 55.1l-4.86 4.86-19.3-19.3 4.85-4.86 19.3 19.3zM155.44 0l-4.86 4.85 19.31 19.32 4.86-4.86L155.44.01zM150.58 55.1l4.86 4.86 19.3-19.3-4.85-4.86-19.3 19.3z"/>
</svg>
