<svg xmlns="http://www.w3.org/2000/svg">
  <symbol id="menu-burger" viewBox="0 0 40 10">
    <path d="M40 7H0v3h40V7z"/>
    <path d="M40 0H0v3h40V0z"/>
  </symbol>

  <symbol id="menu-cross" viewBox="0 0 24 24" fill="none">
    <path d="M19.94 5L19 4.06l-7 7L4.94 4 4 4.94 11.06 12 4 19.06l.94.94L12 12.94 19.06 20l.94-.94L12.94 12l7-7z"/>
  </symbol>

  <symbol id="arrow-down" viewBox="0 0 24 24" fill="none">
    <path stroke-width="1.5" d="M12 4v16m0 0l6-7.11M12 20l-6-7.11"/>
  </symbol>

  <symbol id="arrow-right" viewBox="0 0 24 24" fill="none">
    <path stroke-width="1.5" d="M4 12h16m0 0l-7.11-6M20 12l-7.11 6"/>
  </symbol>

  <symbol id="arrow-left" viewBox="0 0 24 24" fill="none">
    <path stroke-width="1.5" d="M20 12H4m0 0l7.11-6M4 12l7.11 6"/>
  </symbol>

  <symbol id="add-file" viewBox="0 0 24 24">
    <path class="path" d="M12 21c-2.76 0-5-2.52-5-5.63V7.5c0-.41.3-.75.67-.75.36 0 .66.34.66.75v7.88c0 2.27 1.65 4.12 3.67 4.12s3.67-1.85 3.67-4.13V7.13c0-1.44-1.05-2.62-2.34-2.62C12.05 4.5 11 5.68 11 7.12v7.5c0 .63.45 1.13 1 1.13s1-.5 1-1.13V7.5c0-.41.3-.75.67-.75.36 0 .66.34.66.75v7.13c0 1.44-1.04 2.62-2.33 2.62s-2.33-1.18-2.33-2.63v-7.5C9.67 4.85 11.3 3 13.33 3 15.36 3 17 4.85 17 7.12v8.25c0 3.1-2.24 5.63-5 5.63z"/>
  </symbol>

  <symbol id="play" viewBox="0 0 24 24">
    <path fill-rule="evenodd" clip-rule="evenodd" d="M3.54 12a8.46 8.46 0 1116.92 0 8.46 8.46 0 01-16.92 0zM2 12a10 10 0 1020 0 10 10 0 00-20 0zm12.5 0l-3.98 2.35v-4.7L14.5 12zM8.98 9.64c0-1.19 1.3-1.93 2.33-1.32l3.98 2.35c1 .6 1 2.06 0 2.65l-3.98 2.36a1.54 1.54 0 01-2.33-1.33v-4.7z"/>
  </symbol>

  <symbol id="sort-blocks" viewBox="0 0 24 24" fill="none">
    <path stroke-linecap="round" stroke-linejoin="round" clip-rule="evenodd" stroke-width="1.5" d="M7.75 9.75H5a2 2 0 01-2-2V5c0-1.1.9-2 2-2h2.75a2 2 0 012 2v2.75a2 2 0 01-2 2zM19 9.75h-2.75a2 2 0 01-2-2V5c0-1.1.9-2 2-2H19a2 2 0 012 2v2.75a2 2 0 01-2 2zM7.75 21H5a2 2 0 01-2-2v-2.75c0-1.1.9-2 2-2h2.75a2 2 0 012 2V19a2 2 0 01-2 2zM19 21h-2.75a2 2 0 01-2-2v-2.75c0-1.1.9-2 2-2H19a2 2 0 012 2V19a2 2 0 01-2 2z"/>
  </symbol>

  <symbol id="sort-lines" viewBox="0 0 24 24" fill="none">
    <path stroke-linecap="round" stroke-linejoin="round" clip-rule="evenodd" stroke-width="1.5" d="M21 5v2.75a2 2 0 01-2 2H5a2 2 0 01-2-2V5c0-1.1.9-2 2-2h14a2 2 0 012 2zM21 16.25V19a2 2 0 01-2 2H5a2 2 0 01-2-2v-2.75c0-1.1.9-2 2-2h14a2 2 0 012 2z" />
  </symbol>

  <symbol id="refresh" viewBox="0 0 16 16">
    <path d="M12.95 4.46A7.08 7.08 0 008 2.48H6.97L8.62.88 7.7 0 4.5 3.1l3.16 3.11.93-.87-1.64-1.6H8c3.15 0 5.7 2.46 5.7 5.5s-2.55 5.5-5.7 5.5a5.62 5.62 0 01-5.7-5.5V8.6H1v.63c0 1.8.73 3.5 2.05 4.78A7.08 7.08 0 008 16c1.87 0 3.63-.7 4.95-1.98a6.6 6.6 0 000-9.56z"/>
  </symbol>

  <symbol id="cookies" viewBox="0 0 30 30" fill="none">
    <path stroke-linecap="round" stroke-linejoin="round" stroke-width="2" d="M9.5 17.34a.16.16 0 00-.16.16c0 .09.07.16.16.16a.16.16 0 000-.32M11.5 11.34a.16.16 0 00-.16.16c0 .09.07.16.16.16a.16.16 0 100-.32M16.5 20.34a.16.16 0 00-.16.16c0 .09.07.16.16.16a.16.16 0 100-.32M14.5 15.34a.16.16 0 00-.16.16c0 .09.07.16.16.16a.16.16 0 000-.32"/>
    <path stroke-linecap="round" stroke-linejoin="round" clip-rule="evenodd" stroke-width="2" d="M15 4a11 11 0 0011 11A11 11 0 1115 4z"/>
  </symbol>

  <symbol id="strategy" viewBox="0 0 72 72" fill="none">
    <g clip-rule="evenodd" stroke-linecap="round" stroke-linejoin="round" stroke-width="1.5">
      <path d="M36 63v0A27 27 0 019 36v0A27 27 0 0136 9v0a27 27 0 0127 27v0a27 27 0 01-27 27z"/>
      <path d="M36 63v0a18 18 0 01-18-18v0a18 18 0 0118-18v0a18 18 0 0118 18v0a18 18 0 01-18 18z"/>
      <path d="M36 63v0c-5.8 0-10.5-4.7-10.5-10.5v0C25.5 46.7 30.2 42 36 42v0c5.8 0 10.5 4.7 10.5 10.5v0C46.5 58.3 41.8 63 36 63z"/>
    </g>
  </symbol>

  <symbol id="branding" viewBox="0 0 72 72" fill="none">
    <g clip-rule="evenodd" stroke-linecap="round" stroke-linejoin="round" stroke-width="1.5">
      <path d="M43.76 8.67a11 11 0 11-15.55 15.55A11 11 0 0143.76 8.67M63.67 43.15a10.98 10.98 0 11-15.53 15.53 10.98 10.98 0 0115.53-15.53M23.86 43.15A10.98 10.98 0 118.33 58.68a10.98 10.98 0 0115.53-15.53"/>
      <path d="M52.26 23.18A22.99 22.99 0 1119.75 55.7a22.99 22.99 0 0132.5-32.5"/>
    </g>
  </symbol>

  <symbol id="develop" viewBox="0 0 72 72" fill="none">
    <g clip-rule="evenodd" stroke-linecap="round" stroke-linejoin="round" stroke-width="1.5">
      <path d="M42 42H9V9h33v33z"/>
      <path d="M39.04 24.5a19.54 19.54 0 0123.47 23.46A19.35 19.35 0 0147.96 62.5 19.54 19.54 0 0124.5 39.04a19.35 19.35 0 0114.54-14.55z"/>
    </g>
  </symbol>

  <symbol id="design" viewBox="0 0 72 72" fill="none">
    <g clip-rule="evenodd" stroke-linecap="round" stroke-linejoin="round" stroke-width="1.5">
      <path d="M12 43.5h18v18H12v-18zM52.5 63v0C46.7 63 42 58.3 42 52.5v0C42 46.7 46.7 42 52.5 42v0C58.3 42 63 46.7 63 52.5v0C63 58.3 58.3 63 52.5 63zM36 9L22.5 30h27L36 9z"/>
    </g>
  </symbol>
</svg>
