<svg xmlns="http://www.w3.org/2000/svg" width="186" height="60" fill="none" viewBox="0 0 186 60">
  <defs/>
  <path fill="#B9B9B9" d="M117.8 0l4.85 4.85-19.3 19.3-4.85-4.85L117.8 0zM131.15 26.86v6.86h-27.3v-6.86h27.3zM122.65 55.09l-4.85 4.85-19.3-19.3 4.85-4.85 19.3 19.3zM29.97.06l4.85 4.85-19.3 19.3-4.85-4.85L29.97.06zM43.31 26.91v6.87h-27.3v-6.86h27.3zM34.82 55.15L29.97 60l-19.3-19.3 4.85-4.85 19.3 19.3z"/>
  <path fill="#262626" d="M67.58 0l-4.85 4.85 19.3 19.3 4.86-4.85L67.59 0zM54.24 26.85v6.87h27.3v-6.86h-27.3zM62.73 55.09l4.85 4.85 19.3-19.3-4.85-4.85-19.3 19.3z"/>
  <path fill="#B9B9B9" d="M155.38.06l-4.85 4.85 19.3 19.3 4.85-4.85-19.3-19.3zM142.04 26.91v6.87h27.3V26.9h-27.3zM150.53 55.15l4.85 4.85 19.3-19.3-4.85-4.86-19.3 19.3z"/>
</svg>
