<svg xmlns="http://www.w3.org/2000/svg" width="180" height="60" viewBox="0 0 180 60">
  <path fill="#B9B9B9" d="M115.13 0l4.84 4.85-19.3 19.3-4.84-4.85L115.13 0zm13.34 26.86v6.86h-27.3v-6.86h27.3zm-8.5 28.23l-4.84 4.85-19.3-19.3 4.84-4.85 19.3 19.3zM27.3.06l4.85 4.85-19.3 19.3L8 19.36 27.3.06zm13.33 26.85v6.87h-27.3v-6.86h27.3zm-8.48 28.24L27.3 60 8 40.7l4.85-4.85 19.3 19.3z"/>
  <path fill="#262626" d="M64.9 0l-4.85 4.85 19.3 19.3 4.87-4.85L64.92 0zM51.56 26.85v6.87h27.3v-6.86h-27.3zm8.5 28.24l4.84 4.85 19.3-19.3-4.84-4.85-19.3 19.3z"/>
  <path fill="#B9B9B9" d="M152.7.06l-4.84 4.85 19.3 19.3 4.84-4.85L152.7.06zm-13.33 26.85v6.87h27.3V26.9h-27.3zm8.48 28.24l4.86 4.85L172 40.7l-4.85-4.86-19.3 19.3z"/>
</svg>
